<?xml version="1.0" standalone="no"?>
<!DOCTYPE svg PUBLIC "-//W3C//DTD SVG 20010904//EN"
 "http://www.w3.org/TR/2001/REC-SVG-20010904/DTD/svg10.dtd">
<svg version="1.0" xmlns="http://www.w3.org/2000/svg"
 width="896.000000pt" height="896.000000pt" viewBox="0 0 896.000000 896.000000"
 preserveAspectRatio="xMidYMid meet">
<metadata>
Created by potrace 1.11, written by Peter Selinger 2001-2013
</metadata>
<g transform="translate(0.000000,896.000000) scale(0.100000,-0.100000)"
fill="#000000" stroke="none">
<path d="M1140 5377 l0 -3583 643 1 642 0 0 2993 c0 1645 1 2992 2 2992 3 0
20 -68 27 -105 3 -16 10 -52 16 -80 6 -27 13 -59 16 -70 2 -11 6 -31 10 -45 8
-33 24 -109 30 -140 3 -14 10 -43 15 -65 5 -22 11 -49 14 -60 2 -11 7 -33 11
-50 3 -16 8 -37 9 -45 1 -8 5 -26 8 -40 17 -68 37 -158 41 -183 3 -15 7 -35
10 -45 3 -9 7 -28 10 -42 3 -14 8 -36 11 -50 8 -36 26 -122 30 -145 2 -11 6
-29 9 -40 3 -11 19 -83 36 -160 17 -77 33 -147 35 -155 2 -8 11 -49 20 -90 39
-173 57 -256 61 -280 3 -14 7 -33 10 -42 3 -10 7 -30 10 -45 3 -16 7 -36 10
-45 3 -9 7 -27 9 -40 7 -34 24 -115 42 -188 8 -36 17 -78 20 -95 2 -16 6 -36
9 -44 4 -14 50 -218 60 -271 3 -14 10 -45 15 -70 6 -25 12 -54 15 -65 22 -109
27 -133 35 -155 5 -14 11 -38 13 -55 3 -16 7 -41 11 -55 3 -14 8 -34 9 -45 2
-11 23 -103 46 -205 23 -102 43 -194 46 -205 2 -11 9 -45 15 -75 7 -30 12 -61
12 -67 0 -7 3 -13 7 -13 3 0 6 -10 7 -22 0 -13 8 -57 18 -98 9 -41 18 -82 20
-90 2 -8 10 -45 19 -81 8 -37 17 -78 20 -90 15 -71 37 -172 51 -234 16 -67 20
-88 29 -137 3 -13 20 -93 40 -178 59 -264 99 -444 102 -465 1 -11 3 -20 4 -20
1 0 3 -9 5 -20 3 -11 14 -60 25 -110 27 -119 70 -314 76 -345 3 -14 14 -65 26
-115 11 -49 22 -103 24 -120 3 -16 8 -37 11 -45 3 -8 8 -24 9 -35 2 -11 9 -40
14 -65 l11 -46 574 0 574 0 7 26 c4 14 9 34 11 45 5 29 61 264 73 305 14 50
109 441 114 471 2 13 5 24 6 24 1 0 3 7 5 15 2 8 10 47 20 85 9 39 18 78 20
88 2 10 7 28 11 39 3 11 7 30 9 41 2 12 15 66 30 121 14 54 28 115 31 135 3
20 8 40 12 45 4 8 22 82 37 156 3 14 8 32 12 40 3 8 7 22 8 30 6 39 16 84 20
90 3 6 36 142 50 213 2 9 6 21 9 25 3 5 7 19 10 33 7 40 55 242 65 277 5 17 7
32 4 32 -3 0 0 7 7 15 7 8 10 15 6 15 -3 0 -2 10 3 23 5 13 12 41 15 61 4 21
8 41 11 45 2 4 6 18 9 32 3 13 7 34 10 47 4 12 8 30 10 40 2 9 9 35 14 57 6
22 13 51 16 65 3 14 15 63 26 110 12 47 23 92 25 100 2 8 21 89 43 180 41 172
65 270 68 283 1 4 2 8 4 10 1 1 3 10 5 19 2 9 11 47 20 84 9 37 18 75 20 83 5
24 50 208 122 501 35 146 66 273 68 283 2 10 7 27 10 37 3 10 7 27 9 37 10 46
120 505 146 603 11 41 21 84 23 95 1 11 6 26 10 33 5 6 6 12 3 12 -2 0 4 31
14 68 11 38 22 84 25 102 3 18 8 37 10 40 3 4 7 25 11 46 3 20 10 48 15 61 5
13 11 38 14 56 3 18 13 59 21 92 9 33 18 69 20 80 12 65 50 205 55 205 3 0 6
-1329 7 -2952 0 -1624 1 -2964 1 -2978 l1 -26 735 0 735 0 0 3583 0 3583
-1118 0 c-888 0 -1119 -3 -1119 -12 -1 -7 -18 -74 -38 -148 -20 -74 -38 -144
-39 -155 -2 -11 -4 -20 -5 -20 -2 0 -4 -7 -6 -15 -5 -24 -35 -143 -40 -160 -5
-16 -24 -95 -30 -120 -2 -8 -11 -42 -20 -75 -9 -33 -18 -71 -21 -85 -2 -14 -7
-32 -10 -40 -3 -8 -8 -26 -10 -40 -3 -14 -9 -36 -13 -50 -10 -26 -22 -74 -26
-100 -2 -8 -15 -58 -30 -110 -14 -52 -28 -106 -30 -120 -5 -25 -93 -365 -95
-365 -1 0 -3 -9 -5 -20 -3 -19 -72 -288 -116 -455 -21 -80 -27 -100 -33 -127
-2 -10 -14 -54 -25 -98 -12 -44 -23 -89 -25 -101 -2 -11 -6 -25 -9 -31 -3 -5
-9 -23 -11 -39 -8 -39 -11 -52 -42 -169 -15 -55 -28 -107 -29 -115 -1 -8 -5
-22 -8 -30 -4 -8 -9 -26 -12 -40 -5 -28 -21 -90 -90 -355 -26 -99 -48 -187
-50 -195 -10 -37 -88 -339 -96 -370 -5 -19 -11 -44 -13 -55 -3 -11 -12 -47
-21 -80 -9 -33 -19 -71 -21 -85 -3 -14 -8 -34 -11 -45 -4 -11 -8 -24 -9 -30
-1 -5 -18 -73 -39 -150 -20 -77 -39 -151 -41 -165 -6 -30 -24 -51 -25 -29 0 7
-2 21 -4 29 -2 8 -22 98 -45 200 -43 185 -76 333 -86 380 -3 14 -10 43 -15 64
-6 22 -12 51 -14 65 -2 14 -4 26 -5 26 -2 0 -7 22 -15 60 -3 17 -8 38 -11 47
-3 9 -6 25 -8 35 -7 32 -76 335 -98 423 -11 47 -21 92 -22 100 -1 8 -5 26 -9
40 -4 14 -9 37 -12 53 -12 66 -16 83 -21 97 -3 8 -8 26 -10 40 -5 25 -33 147
-74 325 -12 50 -24 101 -26 115 -3 14 -9 41 -14 60 -5 19 -11 46 -13 60 -3 14
-10 43 -15 65 -6 22 -14 52 -17 68 -3 15 -7 39 -11 55 -3 15 -11 52 -19 82 -8
30 -16 66 -18 80 -3 14 -12 54 -21 90 -17 69 -24 100 -32 140 -2 14 -7 36 -11
50 -4 14 -7 30 -8 35 -1 6 -7 33 -14 61 -7 29 -14 58 -15 65 -2 8 -6 25 -9 39
-8 33 -96 419 -101 445 -4 18 -40 178 -52 230 -5 20 -10 41 -18 80 -3 11 -19
81 -36 155 -18 74 -34 146 -37 160 -3 14 -6 30 -7 35 -4 13 -10 42 -36 153
l-22 92 -1154 0 -1154 0 0 -3583z"/>
<path fill="#7F3129" d="M1144 1341 c-2 -2 -4 -305 -4 -671 l0 -667 3345 -1 3345 0 -2 672 -3
671 -3338 0 c-1836 0 -3341 -2 -3343 -4z"/>
</g>
</svg>
