<?xml version="1.0" standalone="no"?>
<!DOCTYPE svg PUBLIC "-//W3C//DTD SVG 20010904//EN"
 "http://www.w3.org/TR/2001/REC-SVG-20010904/DTD/svg10.dtd">
<svg version="1.0" xmlns="http://www.w3.org/2000/svg"
 width="600.000000pt" height="600.000000pt" viewBox="0 0 600.000000 600.000000"
 preserveAspectRatio="xMidYMid meet">
<metadata>
Created by potrace 1.11, written by Peter Selinger 2001-2013
</metadata>
<g transform="translate(0.000000,600.000000) scale(0.100000,-0.100000)"
fill="#000000" stroke="none">
<path d="M2590 4563 c9 -25 8 -26 -4 -10 -7 9 -17 17 -21 17 -10 0 3 -50 21
-77 13 -21 15 -22 44 -5 27 15 32 15 40 2 5 -8 10 -27 10 -41 0 -23 -3 -26
-26 -21 -21 4 -25 1 -22 -14 2 -13 -4 -20 -19 -22 -16 -2 -24 -12 -29 -36 -8
-45 -2 -81 14 -80 6 1 27 2 46 3 38 1 47 17 65 115 13 69 -2 111 -47 140 -21
13 -43 31 -51 40 -21 25 -32 19 -21 -11z"/>
<path d="M3127 4404 c-3 -4 -1 -16 5 -28 10 -19 10 -20 -5 -7 -15 12 -17 11
-17 -8 0 -26 27 -81 39 -81 5 0 14 7 21 15 24 29 52 14 64 -36 5 -25 4 -27
-26 -25 -26 1 -33 -3 -33 -19 0 -13 -6 -19 -17 -17 -9 1 -19 -6 -23 -18 -8
-26 -10 -79 -2 -86 3 -4 34 5 69 19 l63 25 3 71 c3 83 -13 123 -61 147 -17 9
-41 25 -53 35 -11 11 -23 16 -27 13z"/>
<path d="M2880 3643 c-37 -17 -137 -22 -182 -10 -27 7 -28 6 -28 -27 0 -62 5
-66 58 -39 39 20 56 24 99 19 50 -6 53 -5 77 27 39 51 35 56 -24 30z"/>
<path d="M2588 2829 c-13 -3 -34 -4 -48 -2 -21 4 -83 -5 -240 -32 -14 -2 -50
-12 -80 -21 -30 -8 -67 -15 -82 -15 -15 1 -29 -3 -33 -9 -3 -5 -21 -10 -40
-10 -32 0 -34 -2 -53 -62 -12 -35 -24 -79 -27 -98 -4 -19 -12 -40 -17 -47 -16
-20 10 -178 35 -210 5 -7 6 -17 2 -23 -10 -16 34 -11 160 21 22 6 49 10 60 10
10 0 24 4 30 8 12 11 79 22 122 21 18 0 35 5 38 10 3 6 26 10 50 10 24 0 47 4
50 10 3 5 25 7 50 3 28 -3 50 -1 59 6 10 8 41 9 117 1 165 -16 203 -21 214
-31 5 -5 22 -9 38 -9 16 0 43 -6 60 -14 18 -8 46 -17 62 -22 69 -17 202 -67
217 -82 7 -7 22 -12 34 -12 12 0 37 -6 55 -13 49 -19 73 -16 77 11 2 12 7 22
12 22 5 0 9 12 9 28 -1 15 2 43 5 62 14 82 19 193 8 186 -7 -4 -9 8 -6 39 2
29 0 44 -6 40 -5 -3 -7 0 -4 8 4 11 -6 17 -33 22 -21 3 -47 12 -58 19 -19 12
-92 40 -107 41 -4 0 -17 8 -28 18 -11 9 -25 17 -30 17 -16 0 -134 41 -145 50
-6 5 -39 12 -75 16 -36 3 -77 13 -92 20 -29 15 -315 25 -360 13z m252 -103 c0
-25 21 -36 68 -36 15 0 26 -7 29 -20 4 -15 9 -17 23 -10 54 29 129 -9 131 -67
l1 -28 7 25 c5 19 14 26 41 28 30 3 46 -1 99 -27 11 -5 13 -30 12 -106 -1 -54
-4 -102 -7 -107 -3 -4 -16 -2 -29 4 -25 11 -38 35 -33 59 2 7 -6 15 -17 17
-29 6 -46 23 -64 62 l-16 35 -3 -33 -3 -33 -52 7 c-95 12 -133 58 -83 101 19
16 22 23 12 23 -9 0 -16 5 -16 10 0 6 -11 10 -24 10 -24 0 -36 -28 -36 -87 0
-21 -4 -24 -22 -19 -13 3 -27 6 -31 6 -5 0 -7 36 -5 80 3 71 1 80 -14 80 -14
0 -18 -8 -18 -34 0 -18 -3 -54 -6 -80 -6 -40 -10 -46 -30 -46 -32 0 -37 14
-35 92 2 56 0 68 -13 68 -10 0 -16 -9 -16 -23 0 -14 -9 -26 -22 -32 -18 -8
-24 -21 -28 -54 -5 -46 -26 -69 -52 -58 -13 4 -14 19 -10 79 5 75 12 89 47 87
41 -2 56 1 54 14 -4 34 1 37 81 37 78 0 80 -1 80 -24z m-461 -104 c-1 -104 -8
-122 -45 -122 -22 0 -24 4 -25 53 l-1 52 -13 -41 c-21 -66 -34 -84 -59 -84
-26 0 -36 17 -36 61 0 16 -4 29 -10 29 -6 0 -7 -18 -4 -44 6 -40 4 -46 -20
-61 -17 -11 -31 -14 -36 -9 -6 6 -7 51 -3 108 l6 98 35 15 c44 18 58 12 67
-29 12 -54 18 -55 35 -2 12 37 24 53 49 66 54 27 60 18 60 -90z m177 28 c10
-28 9 -42 -2 -70 -18 -42 -27 -48 -82 -56 -54 -8 -74 8 -74 59 0 76 36 108
117 104 25 -2 32 -8 41 -37z m784 -95 c8 -5 22 -10 30 -10 24 0 25 -52 1 -65
-15 -8 -21 -21 -21 -46 0 -34 -1 -35 -32 -32 -28 3 -33 7 -36 33 -2 16 -1 53
3 82 7 54 17 62 55 38z"/>
<path d="M2995 2620 c-3 -5 1 -10 9 -10 9 0 16 5 16 10 0 6 -4 10 -9 10 -6 0
-13 -4 -16 -10z"/>
<path d="M3166 2564 c-11 -29 -7 -64 9 -64 11 0 15 11 15 40 0 40 -13 53 -24
24z"/>
<path d="M2996 2561 c-4 -7 -5 -15 -2 -18 9 -9 19 4 14 18 -4 11 -6 11 -12 0z"/>
<path d="M2467 2633 c-14 -13 -7 -63 8 -63 10 0 15 11 15 35 0 33 -8 43 -23
28z"/>
</g>
</svg>
